<svg id="cat" xmlns="http://www.w3.org/2000/svg" viewBox="0 0 508.77 499.52"><defs><style>.cls-1{font-size:12px;fill:#3d8e48;stroke:#2a973a;stroke-miterlimit:10;font-family:AdobeSongStd-Light-GBpc-EUC-H, Adobe Song Std;}.cls-2{fill:#1c221c;}</style></defs><text class="cls-1" transform="translate(57.7 11.06)">1 <tspan x="-20.06" y="14.4">6 7 8 </tspan><tspan x="-33.78" y="28.8">5 9 2 </tspan><tspan x="-43.55" y="43.2">7 3 5 </tspan><tspan x="-50.34" y="57.6">8 2 4 9 </tspan><tspan x="-54.71" y="72">3 2 8 4 </tspan><tspan x="-57.03" y="86.4">3 4 1 6 </tspan><tspan x="-57.2" y="100.8">7 8 5 9 </tspan><tspan x="-55.38" y="115.2">2 7 3 5 </tspan><tspan x="349.09" y="115.2">8 2 4 </tspan><tspan x="386.21" y="115.2">9 3</tspan><tspan x="-52.2" y="129.6" xml:space="preserve"> 6 7 9 </tspan><tspan x="346.34" y="129.6">9 9 3 6 2 8 4 3</tspan><tspan x="-47.78" y="144">1 6 7 8 </tspan><tspan x="326.11" y="144">5 9 2 7 3 5 8 2 4 9 3 2 8 </tspan><tspan x="-41.56" y="158.4">4 3 4 8 </tspan><tspan x="315.52" y="158.4">4 3 4 8 </tspan><tspan class="cls-2" x="347.63" y="158.4">v</tspan><tspan x="353.03" y="158.4" xml:space="preserve"> 3 4 8 4 3 4 8 4 3 4</tspan><tspan x="-32.67" y="172.8">1 6 7 8 </tspan><tspan x="114.88" y="172.8">5 9 2 7 3 5 8 2 4 9 3 </tspan><tspan x="315.25" y="172.8">2 8 4 3 4 8 4 3 4 8 4 3 4</tspan><tspan x="-22.33" y="187.2">1 6 7 8 5 </tspan><tspan x="59.25" y="187.2">9 2 7 3 5 8 2 4 9 3 2 8 4 3 4 1 6 7 8 5 9 </tspan><tspan x="311.58" y="187.2">1 6 7 8 5 9 2 7 3 5 8 2 4 9 3 </tspan><tspan x="-9.73" y="201.6">2 8 4 3 4 2 7 3 5 8 2 4 9 3 2 8 4 3 4 1 6 7 8 5 9 2 7 3 5 8 2 4 9 3 2 8 4 3 4 1 6 7 8 5 9 2 7 3 5 8 2 4 9 3 </tspan><tspan x="7.45" y="216">2 8 4 3 4 1 6 7 8 5 9 2 7 3 5 8 2 4 9 3 2 8 4 3 4 1 6 7 8 5 9 2 7 3 5 8 2 4 9 3 2 8 4 3 4 1 6 7 8 5 9 </tspan><tspan x="8.4" y="230.4">2 7 3 5 8 2 4 9 3 2 8 4 3 4 1 6 7 8 5 9 2 7 3 5 8 2 4 9 3 2 8 4 3 4 1 6 7 8 5 9 2 7 3 5 8 2 4 9 </tspan><tspan x="6.75" y="244.8">3 2 8 4 3 4 1 6 7 8 5 9 2 7 3 5 8 2 4 9 3 2 8 4 3 4 1 6 7 8 5 9 2 7 3 5 8 2 4 9 3 2 8 4 3 4 1 6 </tspan><tspan x="12.3" y="259.2" xml:space="preserve">7 8 5 9 2 7 3 5 8 2 4 9 3 2 8 4 3 4 5 9 2 7 3 5 8 2 4 9 3 2 8 4 3 4  6 7 6 4 3 7 8  9 6 4 3 2 </tspan><tspan x="14.9" y="273.6" xml:space="preserve">5 9 2 7 3 5 8 2 4 9 3 2 8 4 3 4 5 9 2 7 3 5 8 2 4 9 3 2 8 4 3 4 7 4 3 2 6 5 8  6 7 6 7 6 73 </tspan><tspan x="15.68" y="288" xml:space="preserve">2 1 8 4 3 4  4 1 6 7 8 5 9 2 7 3 5  4 1 6 7 8 5 9 2 7 3 5  4 1 6 7 8 5 9 2 7 3 5   8 9 7 3 5</tspan><tspan x="15.54" y="302.4" xml:space="preserve"> 7 8 6 4 3 2 1 3 5 6 7 8 9  9 0 9 8 7 6 6 5 6 7 8 9  4 1 6 7 8 5 9 2 7 3 5  7 3 5  7 3 5 8 3</tspan><tspan x="14.34" y="316.8">5 9 2 7 3 5 8 2 4 9 3 </tspan><tspan x="139.17" y="316.8" xml:space="preserve">2 8 4 3 4  4 1 6 7 8 5 9 2 7 3 5 4 1 6 7 8 5 9 2 7 3 5 4 3 2</tspan><tspan x="12.07" y="331.2">5 9 2 7 3 5 8 2 4 9 </tspan><tspan x="165.34" y="331.2" xml:space="preserve">3 2 8 4 3 4 3 2 8 4 3 4  3 2 8 4 3 </tspan><tspan x="321.66" y="331.2">4 3 2 8 4 3 4 </tspan><tspan x="7.33" y="345.6">5 9 2 7 3 5 8 2 4 9 </tspan><tspan x="255.4" y="345.6">3 2 8 4 3 </tspan><tspan x="326.87" y="345.6">4 6 7 5 4 3 1 </tspan><tspan x="-6.06" y="360">5 9 2 7 3 5 8 2 4 9 3 </tspan><tspan x="255.32" y="360" xml:space="preserve">2 8 4 3 4  </tspan><tspan x="328.11" y="360">6 6 5 3 2 8</tspan><tspan x="-6.7" y="374.4">5 9 2 7 3 5 8 2 4 9 3 </tspan><tspan x="251.28" y="374.4">2 8 4 3 </tspan><tspan x="336.57" y="374.4">4 8 4 3 4</tspan><tspan x="-5.16" y="388.8">5 9 2 7 3 5 8 2 4 9 </tspan><tspan x="246.99" y="388.8">3 2 8 4 </tspan><tspan x="346.94" y="388.8">3 4 5 8 7</tspan><tspan x="-3.48" y="403.2">5 9 2 7 </tspan><tspan x="44.54" y="403.2">3 5 8 2 </tspan><tspan x="243.31" y="403.2">4 9 3 </tspan><tspan x="357.51" y="403.2">2 8 4 3 4 </tspan><tspan x="-1.63" y="417.6">5 9 2 </tspan><tspan x="50.41" y="417.6">7 3 5 8 </tspan><tspan x="239.81" y="417.6">2 4 </tspan><tspan x="368.56" y="417.6">9 3 2 8 </tspan><tspan x="0.44" y="432">8 7 </tspan><tspan x="55.17" y="432">76 5 4 </tspan><tspan x="234.63" y="432" xml:space="preserve">3 2  </tspan><tspan x="380.3" y="432">9 9 9 9 </tspan><tspan x="2.87" y="446.4" xml:space="preserve">9 9 5  </tspan><tspan x="61.4" y="446.4">5 5 6 </tspan><tspan x="231.58" y="446.4">7 9 8 </tspan><tspan x="390.56" y="446.4">0 9 7 5 </tspan><tspan x="5.98" y="460.8">4 3 </tspan><tspan x="70.26" y="460.8" xml:space="preserve">21 5   </tspan><tspan x="234.36" y="460.8">7 90 </tspan><tspan x="401.45" y="460.8" xml:space="preserve">7 6  </tspan><tspan x="11.88" y="475.2" xml:space="preserve">43 2  </tspan><tspan x="75.58" y="475.2" xml:space="preserve">45 6  7 </tspan><tspan x="241.36" y="475.2" xml:space="preserve">8 90  </tspan><tspan x="414.05" y="475.2" xml:space="preserve">54 3  2</tspan></text></svg>